<svg width="751" height="804" viewBox="0 0 751 804" fill="none" xmlns="http://www.w3.org/2000/svg">
<g filter="url(#filter0_d_0_50)">
<g filter="url(#filter1_b_0_50)">
<rect x="35" y="30" width="687" height="704" rx="50" fill="white" fill-opacity="0.2"/>
<rect x="36" y="31" width="685" height="702" rx="49" stroke="url(#paint0_linear_0_50)" stroke-width="2"/>
</g>
</g>
<g opacity="0.5">
<g filter="url(#filter2_b_0_50)">
<path d="M103.701 39L103.701 726" stroke="#CEE1EA"/>
</g>
<g filter="url(#filter3_b_0_50)">
<path d="M140.34 39L140.34 726" stroke="#CEE1EA"/>
</g>
<g filter="url(#filter4_b_0_50)">
<path d="M176.982 39L176.982 726" stroke="#CEE1EA"/>
</g>
<g filter="url(#filter5_b_0_50)">
<path d="M213.621 39L213.621 726" stroke="#CEE1EA"/>
</g>
<g filter="url(#filter6_b_0_50)">
<path d="M250.261 39L250.261 726" stroke="#CEE1EA"/>
</g>
<g filter="url(#filter7_b_0_50)">
<path d="M286.9 39L286.9 726" stroke="#CEE1EA"/>
</g>
<g filter="url(#filter8_b_0_50)">
<path d="M323.542 39L323.542 726" stroke="#CEE1EA"/>
</g>
<g filter="url(#filter9_b_0_50)">
<path d="M360.181 39L360.181 726" stroke="#CEE1EA"/>
</g>
<g filter="url(#filter10_b_0_50)">
<path d="M396.82 39L396.82 726" stroke="#CEE1EA"/>
</g>
<g filter="url(#filter11_b_0_50)">
<path d="M433.462 39L433.462 726" stroke="#CEE1EA"/>
</g>
<g filter="url(#filter12_b_0_50)">
<path d="M470.101 39L470.101 726" stroke="#CEE1EA"/>
</g>
<g filter="url(#filter13_b_0_50)">
<path d="M506.741 39L506.741 726" stroke="#CEE1EA"/>
</g>
<g filter="url(#filter14_b_0_50)">
<path d="M543.38 39V726" stroke="#CEE1EA"/>
</g>
<g filter="url(#filter15_b_0_50)">
<path d="M580.022 39V726" stroke="#CEE1EA"/>
</g>
<g filter="url(#filter16_b_0_50)">
<path d="M616.661 39V726" stroke="#CEE1EA"/>
</g>
<g filter="url(#filter17_b_0_50)">
<path d="M653.301 39V726" stroke="#CEE1EA"/>
</g>
<g filter="url(#filter18_b_0_50)">
<path d="M710 108L45.9997 108" stroke="#CEE1EA"/>
</g>
<g filter="url(#filter19_b_0_50)">
<path d="M710 144L45.9997 144" stroke="#CEE1EA"/>
</g>
<g filter="url(#filter20_b_0_50)">
<path d="M710 181L45.9997 181" stroke="#CEE1EA"/>
</g>
<g filter="url(#filter21_b_0_50)">
<path d="M710 218L45.9997 218" stroke="#CEE1EA"/>
</g>
<g filter="url(#filter22_b_0_50)">
<path d="M710 254L45.9997 254" stroke="#CEE1EA"/>
</g>
<g filter="url(#filter23_b_0_50)">
<path d="M710 291L45.9997 291" stroke="#CEE1EA"/>
</g>
<g filter="url(#filter24_b_0_50)">
<path d="M710 328L45.9997 328" stroke="#CEE1EA"/>
</g>
<g filter="url(#filter25_b_0_50)">
<path d="M710 364L45.9997 364" stroke="#CEE1EA"/>
</g>
<g filter="url(#filter26_b_0_50)">
<path d="M710 401L45.9997 401" stroke="#CEE1EA"/>
</g>
<g filter="url(#filter27_b_0_50)">
<path d="M710 437L45.9997 437" stroke="#CEE1EA"/>
</g>
<g filter="url(#filter28_b_0_50)">
<path d="M710 474L45.9997 474" stroke="#CEE1EA"/>
</g>
<g filter="url(#filter29_b_0_50)">
<path d="M710 511L45.9997 511" stroke="#CEE1EA"/>
</g>
<g filter="url(#filter30_b_0_50)">
<path d="M710 547L45.9997 547" stroke="#CEE1EA"/>
</g>
<g filter="url(#filter31_b_0_50)">
<path d="M710 584L45.9997 584" stroke="#CEE1EA"/>
</g>
<g filter="url(#filter32_b_0_50)">
<path d="M710 621L45.9997 621" stroke="#CEE1EA"/>
</g>
<g filter="url(#filter33_b_0_50)">
<path d="M710 657L45.9997 657" stroke="#CEE1EA"/>
</g>
</g>
<g filter="url(#filter34_d_0_50)">
<path d="M579.078 339.579C577.077 344.814 561.698 343.8 544.727 337.314C527.756 330.828 515.621 321.326 517.622 316.09C519.623 310.854 595.558 117.88 595.558 117.88L657.014 141.369C657.014 141.369 580.178 336.7 579.078 339.579Z" fill="url(#paint1_linear_0_50)"/>
<path d="M656.491 141.543C656.063 142.664 654.889 143.526 652.953 144.051C651.028 144.574 648.44 144.737 645.355 144.534C639.192 144.127 631.147 142.265 622.69 139.033C614.233 135.801 606.997 131.823 602.134 128.015C599.7 126.109 597.881 124.261 596.795 122.588C595.704 120.905 595.403 119.48 595.831 118.359C596.26 117.238 597.434 116.377 599.37 115.851C601.295 115.329 603.883 115.166 606.967 115.369C613.131 115.775 621.176 117.637 629.632 120.87C638.089 124.102 645.326 128.08 650.189 131.888C652.622 133.794 654.442 135.641 655.527 137.315C656.619 138.997 656.92 140.422 656.491 141.543Z" fill="url(#paint2_linear_0_50)" stroke="url(#paint3_linear_0_50)" stroke-width="0.852615"/>
</g>
<g filter="url(#filter35_d_0_50)">
<path d="M506.088 455.925C473.055 511.968 375.524 524.317 298.791 475.864C235.399 435.835 190.497 349.715 220.198 293.858C257.131 231.199 253.926 236.637 253.926 236.637C253.926 236.637 269.314 351.335 330.016 396.141C393.302 442.854 536.996 403.489 536.996 403.489C536.996 403.489 510.33 448.728 506.088 455.925Z" fill="url(#paint4_linear_0_50)"/>
<path d="M454.753 404.479C431.391 444.113 637.842 330.819 467.119 219.447C296.397 108.076 259.156 342.592 282.518 302.958C305.88 263.323 363.375 253.92 410.936 281.954C458.497 309.988 478.115 364.845 454.753 404.479Z" fill="url(#paint5_linear_0_50)"/>
<mask id="path-39-inside-1_0_50" fill="white">
<path fill-rule="evenodd" clip-rule="evenodd" d="M327.361 434.686C405.749 480.89 500.438 465.511 538.856 400.334C577.273 335.158 544.871 244.866 466.483 198.661C388.095 152.456 293.405 167.836 254.988 233.012C216.571 298.189 248.973 388.481 327.361 434.686ZM362.141 375.679C408.822 403.195 463.919 396.226 485.204 360.115C506.49 324.004 485.903 272.424 439.222 244.909C392.542 217.394 337.445 224.362 316.159 260.474C294.874 296.585 315.461 348.164 362.141 375.679Z"/>
</mask>
<path fill-rule="evenodd" clip-rule="evenodd" d="M327.361 434.686C405.749 480.89 500.438 465.511 538.856 400.334C577.273 335.158 544.871 244.866 466.483 198.661C388.095 152.456 293.405 167.836 254.988 233.012C216.571 298.189 248.973 388.481 327.361 434.686ZM362.141 375.679C408.822 403.195 463.919 396.226 485.204 360.115C506.49 324.004 485.903 272.424 439.222 244.909C392.542 217.394 337.445 224.362 316.159 260.474C294.874 296.585 315.461 348.164 362.141 375.679Z" fill="url(#paint6_linear_0_50)"/>
<path d="M537.261 399.394C499.518 463.427 406.096 478.946 328.301 433.091L326.421 436.28C405.401 482.834 501.359 467.594 540.45 401.274L537.261 399.394ZM465.543 200.256C543.338 246.111 575.004 335.362 537.261 399.394L540.45 401.274C579.542 334.954 546.403 243.62 467.423 197.066L465.543 200.256ZM256.583 233.952C294.326 169.92 387.747 154.4 465.543 200.256L467.423 197.066C388.442 150.512 292.485 165.752 253.393 232.072L256.583 233.952ZM328.301 433.091C250.506 387.235 218.839 297.985 256.583 233.952L253.393 232.072C214.302 298.392 247.44 389.726 326.421 436.28L328.301 433.091ZM483.609 359.175C463.053 394.049 409.286 401.319 363.081 374.085L361.201 377.274C408.358 405.07 464.784 398.404 486.799 361.055L483.609 359.175ZM438.282 246.504C484.487 273.738 504.165 324.301 483.609 359.175L486.799 361.055C508.814 323.706 487.318 271.11 440.162 243.314L438.282 246.504ZM317.754 261.414C338.31 226.54 392.078 219.269 438.282 246.504L440.162 243.314C393.006 215.519 336.579 222.185 314.565 259.534L317.754 261.414ZM363.081 374.085C316.877 346.85 297.198 296.288 317.754 261.414L314.565 259.534C292.55 296.882 314.045 349.479 361.201 377.274L363.081 374.085Z" fill="url(#paint7_linear_0_50)" mask="url(#path-39-inside-1_0_50)"/>
</g>
<g filter="url(#filter36_d_0_50)">
<g opacity="0.9" filter="url(#filter37_b_0_50)">
<path d="M464.043 425.685L568.146 510.942L507.18 623.661L420.913 535.736L464.043 425.685Z" fill="url(#paint8_linear_0_50)"/>
</g>
<path d="M567.445 511.033L644.036 496.824L588.991 600.22L507.18 623.661L567.445 511.033Z" fill="url(#paint9_linear_0_50)"/>
<g opacity="0.9" filter="url(#filter38_b_0_50)">
<path d="M550.165 424.502L644.036 496.824L567.445 511.033L463.647 425.38L550.165 424.502Z" fill="url(#paint10_linear_0_50)"/>
<path d="M466.191 426.28L549.854 425.43L641.829 496.293L567.701 510.044L466.191 426.28Z" stroke="white" stroke-width="1.85119"/>
</g>
</g>
<path d="M111.874 302.849C116.803 309.071 125.839 310.127 132.069 305.208L285.525 184.06C291.833 179.08 292.839 169.898 287.758 163.671L250.499 118L77.0105 258.837L111.874 302.849Z" fill="url(#paint11_linear_0_50)" stroke="white" stroke-width="0.719444"/>
<path d="M57.158 213.731C54.8974 207.856 56.7182 201.194 61.6526 197.285L194.796 91.8171C199.73 87.9084 206.633 87.661 211.834 91.2063L247.971 115.837C251.981 118.57 252.191 124.408 248.387 127.421L84.045 257.603C80.241 260.616 74.6059 259.076 72.8632 254.547L57.158 213.731Z" fill="url(#paint12_linear_0_50)" stroke="white" stroke-width="0.719444"/>
<g filter="url(#filter39_b_0_50)">
<ellipse cx="188.34" cy="472.612" rx="88.6628" ry="81.5901" transform="rotate(13.5781 188.34 472.612)" fill="url(#paint13_linear_0_50)" fill-opacity="0.7"/>
<path d="M273.939 493.286C263.449 536.719 216.649 562.765 169.327 551.336C122.005 539.906 92.2512 495.371 102.741 451.938C113.231 408.505 160.032 382.458 207.354 393.888C254.676 405.317 284.429 449.852 273.939 493.286Z" stroke="#FFFAFA" stroke-width="1.20513"/>
</g>
<g filter="url(#filter40_b_0_50)">
<ellipse cx="193.158" cy="460.56" rx="88.6628" ry="81.5901" transform="rotate(13.5781 193.158 460.56)" fill="url(#paint14_linear_0_50)" fill-opacity="0.7"/>
<path d="M278.758 481.234C268.268 524.667 221.467 550.713 174.145 539.284C126.823 527.855 97.0694 483.32 107.559 439.886C118.049 396.453 164.85 370.407 212.172 381.836C259.494 393.265 289.248 437.801 278.758 481.234Z" stroke="#FFFAFA" stroke-width="1.20513"/>
</g>
<path d="M1 671.104C2.46157 734.595 23.6441 766.341 64.5476 766.341" stroke="#FF7FA8" stroke-width="2"/>
<path d="M670 1C723.123 1 749.684 26.3333 749.684 77" stroke="#848CF1" stroke-width="2"/>
<defs>
<filter id="filter0_d_0_50" x="5" y="30" width="727" height="744" filterUnits="userSpaceOnUse" color-interpolation-filters="sRGB">
<feFlood flood-opacity="0" result="BackgroundImageFix"/>
<feColorMatrix in="SourceAlpha" type="matrix" values="0 0 0 0 0 0 0 0 0 0 0 0 0 0 0 0 0 0 127 0" result="hardAlpha"/>
<feOffset dx="-10" dy="20"/>
<feGaussianBlur stdDeviation="10"/>
<feComposite in2="hardAlpha" operator="out"/>
<feColorMatrix type="matrix" values="0 0 0 0 0.380365 0 0 0 0 0.453506 0 0 0 0 0.8375 0 0 0 0.2 0"/>
<feBlend mode="normal" in2="BackgroundImageFix" result="effect1_dropShadow_0_50"/>
<feBlend mode="normal" in="SourceGraphic" in2="effect1_dropShadow_0_50" result="shape"/>
</filter>
<filter id="filter1_b_0_50" x="15" y="10" width="727" height="744" filterUnits="userSpaceOnUse" color-interpolation-filters="sRGB">
<feFlood flood-opacity="0" result="BackgroundImageFix"/>
<feGaussianBlur in="BackgroundImage" stdDeviation="10"/>
<feComposite in2="SourceAlpha" operator="in" result="effect1_backgroundBlur_0_50"/>
<feBlend mode="normal" in="SourceGraphic" in2="effect1_backgroundBlur_0_50" result="shape"/>
</filter>
<filter id="filter2_b_0_50" x="93.201" y="29" width="21" height="707" filterUnits="userSpaceOnUse" color-interpolation-filters="sRGB">
<feFlood flood-opacity="0" result="BackgroundImageFix"/>
<feGaussianBlur in="BackgroundImage" stdDeviation="5"/>
<feComposite in2="SourceAlpha" operator="in" result="effect1_backgroundBlur_0_50"/>
<feBlend mode="normal" in="SourceGraphic" in2="effect1_backgroundBlur_0_50" result="shape"/>
</filter>
<filter id="filter3_b_0_50" x="129.84" y="29" width="21" height="707" filterUnits="userSpaceOnUse" color-interpolation-filters="sRGB">
<feFlood flood-opacity="0" result="BackgroundImageFix"/>
<feGaussianBlur in="BackgroundImage" stdDeviation="5"/>
<feComposite in2="SourceAlpha" operator="in" result="effect1_backgroundBlur_0_50"/>
<feBlend mode="normal" in="SourceGraphic" in2="effect1_backgroundBlur_0_50" result="shape"/>
</filter>
<filter id="filter4_b_0_50" x="166.482" y="29" width="21" height="707" filterUnits="userSpaceOnUse" color-interpolation-filters="sRGB">
<feFlood flood-opacity="0" result="BackgroundImageFix"/>
<feGaussianBlur in="BackgroundImage" stdDeviation="5"/>
<feComposite in2="SourceAlpha" operator="in" result="effect1_backgroundBlur_0_50"/>
<feBlend mode="normal" in="SourceGraphic" in2="effect1_backgroundBlur_0_50" result="shape"/>
</filter>
<filter id="filter5_b_0_50" x="203.121" y="29" width="21" height="707" filterUnits="userSpaceOnUse" color-interpolation-filters="sRGB">
<feFlood flood-opacity="0" result="BackgroundImageFix"/>
<feGaussianBlur in="BackgroundImage" stdDeviation="5"/>
<feComposite in2="SourceAlpha" operator="in" result="effect1_backgroundBlur_0_50"/>
<feBlend mode="normal" in="SourceGraphic" in2="effect1_backgroundBlur_0_50" result="shape"/>
</filter>
<filter id="filter6_b_0_50" x="239.761" y="29" width="21" height="707" filterUnits="userSpaceOnUse" color-interpolation-filters="sRGB">
<feFlood flood-opacity="0" result="BackgroundImageFix"/>
<feGaussianBlur in="BackgroundImage" stdDeviation="5"/>
<feComposite in2="SourceAlpha" operator="in" result="effect1_backgroundBlur_0_50"/>
<feBlend mode="normal" in="SourceGraphic" in2="effect1_backgroundBlur_0_50" result="shape"/>
</filter>
<filter id="filter7_b_0_50" x="276.4" y="29" width="21" height="707" filterUnits="userSpaceOnUse" color-interpolation-filters="sRGB">
<feFlood flood-opacity="0" result="BackgroundImageFix"/>
<feGaussianBlur in="BackgroundImage" stdDeviation="5"/>
<feComposite in2="SourceAlpha" operator="in" result="effect1_backgroundBlur_0_50"/>
<feBlend mode="normal" in="SourceGraphic" in2="effect1_backgroundBlur_0_50" result="shape"/>
</filter>
<filter id="filter8_b_0_50" x="313.042" y="29" width="21" height="707" filterUnits="userSpaceOnUse" color-interpolation-filters="sRGB">
<feFlood flood-opacity="0" result="BackgroundImageFix"/>
<feGaussianBlur in="BackgroundImage" stdDeviation="5"/>
<feComposite in2="SourceAlpha" operator="in" result="effect1_backgroundBlur_0_50"/>
<feBlend mode="normal" in="SourceGraphic" in2="effect1_backgroundBlur_0_50" result="shape"/>
</filter>
<filter id="filter9_b_0_50" x="349.681" y="29" width="21" height="707" filterUnits="userSpaceOnUse" color-interpolation-filters="sRGB">
<feFlood flood-opacity="0" result="BackgroundImageFix"/>
<feGaussianBlur in="BackgroundImage" stdDeviation="5"/>
<feComposite in2="SourceAlpha" operator="in" result="effect1_backgroundBlur_0_50"/>
<feBlend mode="normal" in="SourceGraphic" in2="effect1_backgroundBlur_0_50" result="shape"/>
</filter>
<filter id="filter10_b_0_50" x="386.32" y="29" width="21" height="707" filterUnits="userSpaceOnUse" color-interpolation-filters="sRGB">
<feFlood flood-opacity="0" result="BackgroundImageFix"/>
<feGaussianBlur in="BackgroundImage" stdDeviation="5"/>
<feComposite in2="SourceAlpha" operator="in" result="effect1_backgroundBlur_0_50"/>
<feBlend mode="normal" in="SourceGraphic" in2="effect1_backgroundBlur_0_50" result="shape"/>
</filter>
<filter id="filter11_b_0_50" x="422.962" y="29" width="21" height="707" filterUnits="userSpaceOnUse" color-interpolation-filters="sRGB">
<feFlood flood-opacity="0" result="BackgroundImageFix"/>
<feGaussianBlur in="BackgroundImage" stdDeviation="5"/>
<feComposite in2="SourceAlpha" operator="in" result="effect1_backgroundBlur_0_50"/>
<feBlend mode="normal" in="SourceGraphic" in2="effect1_backgroundBlur_0_50" result="shape"/>
</filter>
<filter id="filter12_b_0_50" x="459.601" y="29" width="21" height="707" filterUnits="userSpaceOnUse" color-interpolation-filters="sRGB">
<feFlood flood-opacity="0" result="BackgroundImageFix"/>
<feGaussianBlur in="BackgroundImage" stdDeviation="5"/>
<feComposite in2="SourceAlpha" operator="in" result="effect1_backgroundBlur_0_50"/>
<feBlend mode="normal" in="SourceGraphic" in2="effect1_backgroundBlur_0_50" result="shape"/>
</filter>
<filter id="filter13_b_0_50" x="496.241" y="29" width="21" height="707" filterUnits="userSpaceOnUse" color-interpolation-filters="sRGB">
<feFlood flood-opacity="0" result="BackgroundImageFix"/>
<feGaussianBlur in="BackgroundImage" stdDeviation="5"/>
<feComposite in2="SourceAlpha" operator="in" result="effect1_backgroundBlur_0_50"/>
<feBlend mode="normal" in="SourceGraphic" in2="effect1_backgroundBlur_0_50" result="shape"/>
</filter>
<filter id="filter14_b_0_50" x="532.88" y="29" width="21" height="707" filterUnits="userSpaceOnUse" color-interpolation-filters="sRGB">
<feFlood flood-opacity="0" result="BackgroundImageFix"/>
<feGaussianBlur in="BackgroundImage" stdDeviation="5"/>
<feComposite in2="SourceAlpha" operator="in" result="effect1_backgroundBlur_0_50"/>
<feBlend mode="normal" in="SourceGraphic" in2="effect1_backgroundBlur_0_50" result="shape"/>
</filter>
<filter id="filter15_b_0_50" x="569.522" y="29" width="21" height="707" filterUnits="userSpaceOnUse" color-interpolation-filters="sRGB">
<feFlood flood-opacity="0" result="BackgroundImageFix"/>
<feGaussianBlur in="BackgroundImage" stdDeviation="5"/>
<feComposite in2="SourceAlpha" operator="in" result="effect1_backgroundBlur_0_50"/>
<feBlend mode="normal" in="SourceGraphic" in2="effect1_backgroundBlur_0_50" result="shape"/>
</filter>
<filter id="filter16_b_0_50" x="606.161" y="29" width="21" height="707" filterUnits="userSpaceOnUse" color-interpolation-filters="sRGB">
<feFlood flood-opacity="0" result="BackgroundImageFix"/>
<feGaussianBlur in="BackgroundImage" stdDeviation="5"/>
<feComposite in2="SourceAlpha" operator="in" result="effect1_backgroundBlur_0_50"/>
<feBlend mode="normal" in="SourceGraphic" in2="effect1_backgroundBlur_0_50" result="shape"/>
</filter>
<filter id="filter17_b_0_50" x="642.801" y="29" width="21" height="707" filterUnits="userSpaceOnUse" color-interpolation-filters="sRGB">
<feFlood flood-opacity="0" result="BackgroundImageFix"/>
<feGaussianBlur in="BackgroundImage" stdDeviation="5"/>
<feComposite in2="SourceAlpha" operator="in" result="effect1_backgroundBlur_0_50"/>
<feBlend mode="normal" in="SourceGraphic" in2="effect1_backgroundBlur_0_50" result="shape"/>
</filter>
<filter id="filter18_b_0_50" x="35.9997" y="97.5" width="684" height="21" filterUnits="userSpaceOnUse" color-interpolation-filters="sRGB">
<feFlood flood-opacity="0" result="BackgroundImageFix"/>
<feGaussianBlur in="BackgroundImage" stdDeviation="5"/>
<feComposite in2="SourceAlpha" operator="in" result="effect1_backgroundBlur_0_50"/>
<feBlend mode="normal" in="SourceGraphic" in2="effect1_backgroundBlur_0_50" result="shape"/>
</filter>
<filter id="filter19_b_0_50" x="35.9997" y="133.5" width="684" height="21" filterUnits="userSpaceOnUse" color-interpolation-filters="sRGB">
<feFlood flood-opacity="0" result="BackgroundImageFix"/>
<feGaussianBlur in="BackgroundImage" stdDeviation="5"/>
<feComposite in2="SourceAlpha" operator="in" result="effect1_backgroundBlur_0_50"/>
<feBlend mode="normal" in="SourceGraphic" in2="effect1_backgroundBlur_0_50" result="shape"/>
</filter>
<filter id="filter20_b_0_50" x="35.9997" y="170.5" width="684" height="21" filterUnits="userSpaceOnUse" color-interpolation-filters="sRGB">
<feFlood flood-opacity="0" result="BackgroundImageFix"/>
<feGaussianBlur in="BackgroundImage" stdDeviation="5"/>
<feComposite in2="SourceAlpha" operator="in" result="effect1_backgroundBlur_0_50"/>
<feBlend mode="normal" in="SourceGraphic" in2="effect1_backgroundBlur_0_50" result="shape"/>
</filter>
<filter id="filter21_b_0_50" x="35.9997" y="207.5" width="684" height="21" filterUnits="userSpaceOnUse" color-interpolation-filters="sRGB">
<feFlood flood-opacity="0" result="BackgroundImageFix"/>
<feGaussianBlur in="BackgroundImage" stdDeviation="5"/>
<feComposite in2="SourceAlpha" operator="in" result="effect1_backgroundBlur_0_50"/>
<feBlend mode="normal" in="SourceGraphic" in2="effect1_backgroundBlur_0_50" result="shape"/>
</filter>
<filter id="filter22_b_0_50" x="35.9997" y="243.5" width="684" height="21" filterUnits="userSpaceOnUse" color-interpolation-filters="sRGB">
<feFlood flood-opacity="0" result="BackgroundImageFix"/>
<feGaussianBlur in="BackgroundImage" stdDeviation="5"/>
<feComposite in2="SourceAlpha" operator="in" result="effect1_backgroundBlur_0_50"/>
<feBlend mode="normal" in="SourceGraphic" in2="effect1_backgroundBlur_0_50" result="shape"/>
</filter>
<filter id="filter23_b_0_50" x="35.9997" y="280.5" width="684" height="21" filterUnits="userSpaceOnUse" color-interpolation-filters="sRGB">
<feFlood flood-opacity="0" result="BackgroundImageFix"/>
<feGaussianBlur in="BackgroundImage" stdDeviation="5"/>
<feComposite in2="SourceAlpha" operator="in" result="effect1_backgroundBlur_0_50"/>
<feBlend mode="normal" in="SourceGraphic" in2="effect1_backgroundBlur_0_50" result="shape"/>
</filter>
<filter id="filter24_b_0_50" x="35.9997" y="317.5" width="684" height="21" filterUnits="userSpaceOnUse" color-interpolation-filters="sRGB">
<feFlood flood-opacity="0" result="BackgroundImageFix"/>
<feGaussianBlur in="BackgroundImage" stdDeviation="5"/>
<feComposite in2="SourceAlpha" operator="in" result="effect1_backgroundBlur_0_50"/>
<feBlend mode="normal" in="SourceGraphic" in2="effect1_backgroundBlur_0_50" result="shape"/>
</filter>
<filter id="filter25_b_0_50" x="35.9997" y="353.5" width="684" height="21" filterUnits="userSpaceOnUse" color-interpolation-filters="sRGB">
<feFlood flood-opacity="0" result="BackgroundImageFix"/>
<feGaussianBlur in="BackgroundImage" stdDeviation="5"/>
<feComposite in2="SourceAlpha" operator="in" result="effect1_backgroundBlur_0_50"/>
<feBlend mode="normal" in="SourceGraphic" in2="effect1_backgroundBlur_0_50" result="shape"/>
</filter>
<filter id="filter26_b_0_50" x="35.9997" y="390.5" width="684" height="21" filterUnits="userSpaceOnUse" color-interpolation-filters="sRGB">
<feFlood flood-opacity="0" result="BackgroundImageFix"/>
<feGaussianBlur in="BackgroundImage" stdDeviation="5"/>
<feComposite in2="SourceAlpha" operator="in" result="effect1_backgroundBlur_0_50"/>
<feBlend mode="normal" in="SourceGraphic" in2="effect1_backgroundBlur_0_50" result="shape"/>
</filter>
<filter id="filter27_b_0_50" x="35.9997" y="426.5" width="684" height="21" filterUnits="userSpaceOnUse" color-interpolation-filters="sRGB">
<feFlood flood-opacity="0" result="BackgroundImageFix"/>
<feGaussianBlur in="BackgroundImage" stdDeviation="5"/>
<feComposite in2="SourceAlpha" operator="in" result="effect1_backgroundBlur_0_50"/>
<feBlend mode="normal" in="SourceGraphic" in2="effect1_backgroundBlur_0_50" result="shape"/>
</filter>
<filter id="filter28_b_0_50" x="35.9997" y="463.5" width="684" height="21" filterUnits="userSpaceOnUse" color-interpolation-filters="sRGB">
<feFlood flood-opacity="0" result="BackgroundImageFix"/>
<feGaussianBlur in="BackgroundImage" stdDeviation="5"/>
<feComposite in2="SourceAlpha" operator="in" result="effect1_backgroundBlur_0_50"/>
<feBlend mode="normal" in="SourceGraphic" in2="effect1_backgroundBlur_0_50" result="shape"/>
</filter>
<filter id="filter29_b_0_50" x="35.9997" y="500.5" width="684" height="21" filterUnits="userSpaceOnUse" color-interpolation-filters="sRGB">
<feFlood flood-opacity="0" result="BackgroundImageFix"/>
<feGaussianBlur in="BackgroundImage" stdDeviation="5"/>
<feComposite in2="SourceAlpha" operator="in" result="effect1_backgroundBlur_0_50"/>
<feBlend mode="normal" in="SourceGraphic" in2="effect1_backgroundBlur_0_50" result="shape"/>
</filter>
<filter id="filter30_b_0_50" x="35.9997" y="536.5" width="684" height="21" filterUnits="userSpaceOnUse" color-interpolation-filters="sRGB">
<feFlood flood-opacity="0" result="BackgroundImageFix"/>
<feGaussianBlur in="BackgroundImage" stdDeviation="5"/>
<feComposite in2="SourceAlpha" operator="in" result="effect1_backgroundBlur_0_50"/>
<feBlend mode="normal" in="SourceGraphic" in2="effect1_backgroundBlur_0_50" result="shape"/>
</filter>
<filter id="filter31_b_0_50" x="35.9997" y="573.5" width="684" height="21" filterUnits="userSpaceOnUse" color-interpolation-filters="sRGB">
<feFlood flood-opacity="0" result="BackgroundImageFix"/>
<feGaussianBlur in="BackgroundImage" stdDeviation="5"/>
<feComposite in2="SourceAlpha" operator="in" result="effect1_backgroundBlur_0_50"/>
<feBlend mode="normal" in="SourceGraphic" in2="effect1_backgroundBlur_0_50" result="shape"/>
</filter>
<filter id="filter32_b_0_50" x="35.9997" y="610.5" width="684" height="21" filterUnits="userSpaceOnUse" color-interpolation-filters="sRGB">
<feFlood flood-opacity="0" result="BackgroundImageFix"/>
<feGaussianBlur in="BackgroundImage" stdDeviation="5"/>
<feComposite in2="SourceAlpha" operator="in" result="effect1_backgroundBlur_0_50"/>
<feBlend mode="normal" in="SourceGraphic" in2="effect1_backgroundBlur_0_50" result="shape"/>
</filter>
<filter id="filter33_b_0_50" x="35.9997" y="646.5" width="684" height="21" filterUnits="userSpaceOnUse" color-interpolation-filters="sRGB">
<feFlood flood-opacity="0" result="BackgroundImageFix"/>
<feGaussianBlur in="BackgroundImage" stdDeviation="5"/>
<feComposite in2="SourceAlpha" operator="in" result="effect1_backgroundBlur_0_50"/>
<feBlend mode="normal" in="SourceGraphic" in2="effect1_backgroundBlur_0_50" result="shape"/>
</filter>
<filter id="filter34_d_0_50" x="485.166" y="114.858" width="204.18" height="320.185" filterUnits="userSpaceOnUse" color-interpolation-filters="sRGB">
<feFlood flood-opacity="0" result="BackgroundImageFix"/>
<feColorMatrix in="SourceAlpha" type="matrix" values="0 0 0 0 0 0 0 0 0 0 0 0 0 0 0 0 0 0 127 0" result="hardAlpha"/>
<feOffset dy="59.8751"/>
<feGaussianBlur stdDeviation="16.1202"/>
<feComposite in2="hardAlpha" operator="out"/>
<feColorMatrix type="matrix" values="0 0 0 0 0.337255 0 0 0 0 0.717647 0 0 0 0 0.420941 0 0 0 0.15 0"/>
<feBlend mode="normal" in2="BackgroundImageFix" result="effect1_dropShadow_0_50"/>
<feBlend mode="normal" in="SourceGraphic" in2="effect1_dropShadow_0_50" result="shape"/>
</filter>
<filter id="filter35_d_0_50" x="140.828" y="172.003" width="484.192" height="534.005" filterUnits="userSpaceOnUse" color-interpolation-filters="sRGB">
<feFlood flood-opacity="0" result="BackgroundImageFix"/>
<feColorMatrix in="SourceAlpha" type="matrix" values="0 0 0 0 0 0 0 0 0 0 0 0 0 0 0 0 0 0 127 0" result="hardAlpha"/>
<feOffset dy="130"/>
<feGaussianBlur stdDeviation="35"/>
<feComposite in2="hardAlpha" operator="out"/>
<feColorMatrix type="matrix" values="0 0 0 0 0.388235 0 0 0 0 0.337255 0 0 0 0 0.717647 0 0 0 0.1 0"/>
<feBlend mode="normal" in2="BackgroundImageFix" result="effect1_dropShadow_0_50"/>
<feBlend mode="normal" in="SourceGraphic" in2="effect1_dropShadow_0_50" result="shape"/>
</filter>
<filter id="filter36_d_0_50" x="370.913" y="424.502" width="323.123" height="379.16" filterUnits="userSpaceOnUse" color-interpolation-filters="sRGB">
<feFlood flood-opacity="0" result="BackgroundImageFix"/>
<feColorMatrix in="SourceAlpha" type="matrix" values="0 0 0 0 0 0 0 0 0 0 0 0 0 0 0 0 0 0 127 0" result="hardAlpha"/>
<feOffset dy="130"/>
<feGaussianBlur stdDeviation="25"/>
<feComposite in2="hardAlpha" operator="out"/>
<feColorMatrix type="matrix" values="0 0 0 0 0.436157 0 0 0 0 0.337255 0 0 0 0 0.717647 0 0 0 0.05 0"/>
<feBlend mode="normal" in2="BackgroundImageFix" result="effect1_dropShadow_0_50"/>
<feBlend mode="normal" in="SourceGraphic" in2="effect1_dropShadow_0_50" result="shape"/>
</filter>
<filter id="filter37_b_0_50" x="416.913" y="421.685" width="155.234" height="205.976" filterUnits="userSpaceOnUse" color-interpolation-filters="sRGB">
<feFlood flood-opacity="0" result="BackgroundImageFix"/>
<feGaussianBlur in="BackgroundImage" stdDeviation="2"/>
<feComposite in2="SourceAlpha" operator="in" result="effect1_backgroundBlur_0_50"/>
<feBlend mode="normal" in="SourceGraphic" in2="effect1_backgroundBlur_0_50" result="shape"/>
</filter>
<filter id="filter38_b_0_50" x="459.647" y="420.502" width="188.389" height="94.5312" filterUnits="userSpaceOnUse" color-interpolation-filters="sRGB">
<feFlood flood-opacity="0" result="BackgroundImageFix"/>
<feGaussianBlur in="BackgroundImage" stdDeviation="2"/>
<feComposite in2="SourceAlpha" operator="in" result="effect1_backgroundBlur_0_50"/>
<feBlend mode="normal" in="SourceGraphic" in2="effect1_backgroundBlur_0_50" result="shape"/>
</filter>
<filter id="filter39_b_0_50" x="75.9309" y="366.493" width="224.819" height="212.237" filterUnits="userSpaceOnUse" color-interpolation-filters="sRGB">
<feFlood flood-opacity="0" result="BackgroundImageFix"/>
<feGaussianBlur in="BackgroundImage" stdDeviation="12.0513"/>
<feComposite in2="SourceAlpha" operator="in" result="effect1_backgroundBlur_0_50"/>
<feBlend mode="normal" in="SourceGraphic" in2="effect1_backgroundBlur_0_50" result="shape"/>
</filter>
<filter id="filter40_b_0_50" x="80.7491" y="354.442" width="224.819" height="212.237" filterUnits="userSpaceOnUse" color-interpolation-filters="sRGB">
<feFlood flood-opacity="0" result="BackgroundImageFix"/>
<feGaussianBlur in="BackgroundImage" stdDeviation="12.0513"/>
<feComposite in2="SourceAlpha" operator="in" result="effect1_backgroundBlur_0_50"/>
<feBlend mode="normal" in="SourceGraphic" in2="effect1_backgroundBlur_0_50" result="shape"/>
</filter>
<linearGradient id="paint0_linear_0_50" x1="378.5" y1="30" x2="690.128" y2="725.507" gradientUnits="userSpaceOnUse">
<stop stop-color="#F6B1A6"/>
<stop offset="1" stop-color="#7E8AF3"/>
</linearGradient>
<linearGradient id="paint1_linear_0_50" x1="637.007" y1="174.28" x2="590.979" y2="154.956" gradientUnits="userSpaceOnUse">
<stop stop-color="#278C7E"/>
<stop offset="1" stop-color="#7CEBCA"/>
</linearGradient>
<linearGradient id="paint2_linear_0_50" x1="717.192" y1="170.615" x2="649.9" y2="205.919" gradientUnits="userSpaceOnUse">
<stop stop-color="#FFE895"/>
<stop offset="1" stop-color="#A5FF96"/>
</linearGradient>
<linearGradient id="paint3_linear_0_50" x1="637.38" y1="123.374" x2="632.573" y2="138.954" gradientUnits="userSpaceOnUse">
<stop stop-color="#3BBA7F"/>
<stop offset="1" stop-color="white"/>
</linearGradient>
<linearGradient id="paint4_linear_0_50" x1="226.506" y1="345.458" x2="462.525" y2="481.372" gradientUnits="userSpaceOnUse">
<stop stop-color="#A96389"/>
<stop offset="1" stop-color="#BD92EA"/>
</linearGradient>
<linearGradient id="paint5_linear_0_50" x1="460.16" y1="215.016" x2="372.436" y2="363.843" gradientUnits="userSpaceOnUse">
<stop stop-color="#5049B8"/>
<stop offset="1" stop-color="#846CB2"/>
</linearGradient>
<linearGradient id="paint6_linear_0_50" x1="530.801" y1="222.605" x2="253.863" y2="423.667" gradientUnits="userSpaceOnUse">
<stop stop-color="#6684F9"/>
<stop offset="0.504278" stop-color="#E3A2D8"/>
<stop offset="1" stop-color="#FFB989"/>
</linearGradient>
<linearGradient id="paint7_linear_0_50" x1="501.567" y1="219.341" x2="425.689" y2="422.806" gradientUnits="userSpaceOnUse">
<stop stop-color="#8572FF"/>
<stop offset="1" stop-color="white"/>
</linearGradient>
<linearGradient id="paint8_linear_0_50" x1="477.571" y1="593.275" x2="516.154" y2="500.651" gradientUnits="userSpaceOnUse">
<stop stop-color="#FFB7A0"/>
<stop offset="1" stop-color="#F6DFA4"/>
</linearGradient>
<linearGradient id="paint9_linear_0_50" x1="559.702" y1="630.043" x2="596.418" y2="475.018" gradientUnits="userSpaceOnUse">
<stop stop-color="#FF68B1"/>
<stop offset="1" stop-color="#FFCF87"/>
</linearGradient>
<linearGradient id="paint10_linear_0_50" x1="838.906" y1="646.963" x2="555.425" y2="443.071" gradientUnits="userSpaceOnUse">
<stop stop-color="#FE9535"/>
<stop offset="1" stop-color="#FFF9BE"/>
</linearGradient>
<linearGradient id="paint11_linear_0_50" x1="162.454" y1="188.477" x2="221.399" y2="250.964" gradientUnits="userSpaceOnUse">
<stop stop-color="#FFBC6C"/>
<stop offset="1" stop-color="#FFD0D3"/>
</linearGradient>
<linearGradient id="paint12_linear_0_50" x1="473.751" y1="-90.7657" x2="159.089" y2="199.639" gradientUnits="userSpaceOnUse">
<stop stop-color="#FE9535"/>
<stop offset="1" stop-color="#FFF9BE"/>
</linearGradient>
<linearGradient id="paint13_linear_0_50" x1="166.159" y1="544.641" x2="217.667" y2="396.702" gradientUnits="userSpaceOnUse">
<stop/>
<stop offset="1" stop-color="#BDD7FF" stop-opacity="0.13"/>
</linearGradient>
<linearGradient id="paint14_linear_0_50" x1="188.239" y1="543.087" x2="240.376" y2="387.068" gradientUnits="userSpaceOnUse">
<stop/>
<stop offset="1" stop-color="#BDD7FF" stop-opacity="0.13"/>
</linearGradient>
</defs>
</svg>
