<svg width="166" height="53" viewBox="0 0 166 53" fill="none" xmlns="http://www.w3.org/2000/svg">
<path d="M8.22607 22.2359H11.4332C12.4606 22.2359 13.3075 22.0623 13.9739 21.7152C14.6403 21.3542 15.1332 20.8544 15.4525 20.2158C15.7857 19.5633 15.9523 18.8066 15.9523 17.9458C15.9523 17.1683 15.7996 16.4811 15.4942 15.8841C15.2026 15.2732 14.7514 14.8012 14.1405 14.4679C13.5296 14.1209 12.7591 13.9473 11.8289 13.9473C11.093 13.9473 10.4127 14.0931 9.78798 14.3846C9.16322 14.6762 8.6634 15.0858 8.28855 15.6134C7.91369 16.1409 7.72626 16.7796 7.72626 17.5293H1.70769C1.70769 15.8633 2.15197 14.4124 3.04052 13.1768C3.94296 11.9411 5.15084 10.9762 6.66416 10.282C8.17748 9.58784 9.84352 9.24075 11.6623 9.24075C13.7171 9.24075 15.515 9.57396 17.0561 10.2404C18.5972 10.8929 19.7981 11.8578 20.6589 13.1351C21.5197 14.4124 21.9501 15.9952 21.9501 17.8833C21.9501 18.8413 21.7279 19.7715 21.2837 20.6739C20.8394 21.5625 20.2007 22.3678 19.3677 23.0897C18.5486 23.7978 17.5489 24.367 16.3688 24.7974C15.1887 25.2139 13.8628 25.4222 12.3912 25.4222H8.22607V22.2359ZM8.22607 26.7966V23.6936H12.3912C14.0433 23.6936 15.4942 23.8811 16.7437 24.2559C17.9932 24.6308 19.0414 25.1723 19.8883 25.8803C20.7352 26.5745 21.3739 27.4006 21.8043 28.3586C22.2347 29.3026 22.4499 30.3509 22.4499 31.5032C22.4499 32.9193 22.1791 34.1827 21.6377 35.2934C21.0962 36.3902 20.3326 37.3205 19.3469 38.0841C18.375 38.8477 17.2366 39.4308 15.9315 39.8334C14.6264 40.2221 13.2034 40.4165 11.6623 40.4165C10.385 40.4165 9.12851 40.243 7.89286 39.8959C6.6711 39.5349 5.56041 39.0004 4.56078 38.2923C3.57504 37.5704 2.78367 36.6679 2.18668 35.585C1.60356 34.4882 1.31201 33.1901 1.31201 31.6906H7.33057C7.33057 32.4681 7.52494 33.1623 7.91369 33.7732C8.30243 34.3841 8.83695 34.863 9.51725 35.2101C10.2114 35.5572 10.982 35.7308 11.8289 35.7308C12.7869 35.7308 13.606 35.5572 14.2863 35.2101C14.9805 34.8492 15.508 34.3494 15.869 33.7107C16.2439 33.0582 16.4313 32.3015 16.4313 31.4407C16.4313 30.33 16.23 29.4415 15.8274 28.7751C15.4247 28.0948 14.8486 27.5949 14.0989 27.2756C13.3491 26.9563 12.4606 26.7966 11.4332 26.7966H8.22607Z" fill="#1A1922"/>
<g filter="url(#filter0_d_0_34)">
<path d="M38.531 40.8072H30.9075L30.9547 34.4346H38.531C40.1045 34.4346 41.4341 34.057 42.5198 33.3017C43.6213 32.5465 44.4552 31.4214 45.0217 29.9266C45.6038 28.4161 45.8949 26.5594 45.8949 24.3565V22.8695C45.8949 21.2174 45.7297 19.7698 45.3993 18.5267C45.0846 17.2679 44.6125 16.2216 43.9832 15.3876C43.3538 14.538 42.567 13.9007 41.6229 13.4759C40.6946 13.051 39.6246 12.8386 38.413 12.8386H30.7659L30.9547 1L38.413 6.44239C40.7418 6.44239 42.8738 6.84363 44.8092 7.64611C46.7603 8.43285 48.444 9.56575 49.8601 11.0448C51.292 12.5082 52.3934 14.2469 53.1644 16.2609C53.9512 18.2592 54.3445 20.4778 54.3445 22.9167V24.3565C54.3445 26.7796 53.9512 28.9983 53.1644 31.0123C52.3934 33.0264 51.2998 34.7651 49.8837 36.2284C48.4676 37.6917 46.7918 38.8246 44.8564 39.6271C42.9368 40.4139 40.8283 40.8072 38.531 40.8072ZM30.9547 1L35.6516 40.8072H27.3672V6.44239L30.9547 1Z" fill="#1A1922"/>
<path d="M41.5965 35.3648H38.7171V28.9922H41.5965C43.17 28.9922 44.4996 28.6146 45.5853 27.8593C46.6867 27.1041 47.5207 25.979 48.0871 24.4842C48.6693 22.9737 48.9604 21.117 48.9604 18.9141V17.4271C48.9604 15.775 48.7952 14.3274 48.4648 13.0843C48.1501 11.8256 47.678 10.7792 47.0486 9.94524C46.4192 9.09556 45.6325 8.4583 44.6884 8.03346C43.7601 7.60862 42.6901 7.3962 41.4785 7.3962H38.7171V1H41.4785C43.8073 1 45.9393 1.40124 47.8747 2.20371C49.8258 2.99045 51.5095 4.12336 52.9256 5.60243C54.3575 7.06577 55.4589 8.80447 56.2299 10.8185C57.0166 12.8168 57.41 15.0355 57.41 17.4743V18.9141C57.41 21.3372 57.0166 23.5559 56.2299 25.5699C55.4589 27.584 54.3653 29.3227 52.9492 30.786C51.5331 32.2493 49.8573 33.3822 47.9219 34.1847C46.0023 34.9715 43.8938 35.3648 41.5965 35.3648ZM38.7171 1V35.3648H30.4327V1H38.7171Z" fill="url(#paint0_linear_0_34)" stroke="white" stroke-width="0.710843"/>
</g>
<path d="M73.64 28.512C72.424 29.728 70.92 30.336 69.128 30.336C67.336 30.336 65.832 29.728 64.616 28.512C63.4 27.296 62.792 25.792 62.792 24C62.792 22.224 63.4 20.728 64.616 19.512C65.848 18.28 67.352 17.664 69.128 17.664C70.904 17.664 72.408 18.28 73.64 19.512C74.872 20.744 75.488 22.24 75.488 24C75.488 25.776 74.872 27.28 73.64 28.512ZM66.8 26.376C67.424 27 68.2 27.312 69.128 27.312C70.056 27.312 70.832 27 71.456 26.376C72.08 25.752 72.392 24.96 72.392 24C72.392 23.04 72.08 22.248 71.456 21.624C70.832 21 70.056 20.688 69.128 20.688C68.2 20.688 67.424 21 66.8 21.624C66.192 22.264 65.888 23.056 65.888 24C65.888 24.944 66.192 25.736 66.8 26.376ZM85.61 17.664C87.226 17.664 88.602 18.28 89.738 19.512C90.89 20.744 91.466 22.24 91.466 24C91.466 25.792 90.89 27.296 89.738 28.512C88.618 29.728 87.242 30.336 85.61 30.336C83.93 30.336 82.634 29.752 81.722 28.584V30H78.626V13.2H81.722V19.416C82.634 18.248 83.93 17.664 85.61 17.664ZM82.658 26.448C83.282 27.072 84.074 27.384 85.034 27.384C85.994 27.384 86.786 27.072 87.41 26.448C88.05 25.808 88.37 24.992 88.37 24C88.37 23.008 88.05 22.2 87.41 21.576C86.786 20.936 85.994 20.616 85.034 20.616C84.074 20.616 83.282 20.936 82.658 21.576C82.034 22.2 81.722 23.008 81.722 24C81.722 24.992 82.034 25.808 82.658 26.448ZM96.2259 16.56C95.6979 16.56 95.2419 16.376 94.8579 16.008C94.4899 15.624 94.3059 15.176 94.3059 14.664C94.3059 14.152 94.4899 13.704 94.8579 13.32C95.2419 12.936 95.6979 12.744 96.2259 12.744C96.7379 12.744 97.1779 12.936 97.5459 13.32C97.9299 13.704 98.1219 14.152 98.1219 14.664C98.1219 15.176 97.9299 15.624 97.5459 16.008C97.1779 16.376 96.7379 16.56 96.2259 16.56ZM94.6659 30.24V18H97.7619V30.24C97.7619 32 97.3299 33.28 96.4659 34.08C95.6179 34.896 94.3059 35.248 92.5299 35.136V32.16C93.2659 32.208 93.8019 32.08 94.1379 31.776C94.4899 31.472 94.6659 30.96 94.6659 30.24ZM113.21 25.272H104.162C104.562 26.776 105.69 27.528 107.546 27.528C108.73 27.528 109.626 27.128 110.234 26.328L112.73 27.768C111.546 29.48 109.802 30.336 107.498 30.336C105.514 30.336 103.922 29.736 102.722 28.536C101.522 27.336 100.922 25.824 100.922 24C100.922 22.208 101.514 20.704 102.698 19.488C103.866 18.272 105.386 17.664 107.258 17.664C109.034 17.664 110.482 18.272 111.602 19.488C112.754 20.704 113.33 22.208 113.33 24C113.33 24.336 113.29 24.76 113.21 25.272ZM104.114 22.872H110.234C110.058 22.088 109.698 21.488 109.154 21.072C108.626 20.656 107.994 20.448 107.258 20.448C106.426 20.448 105.738 20.664 105.194 21.096C104.65 21.512 104.29 22.104 104.114 22.872ZM122.07 30.336C120.262 30.336 118.75 29.728 117.534 28.512C116.334 27.296 115.734 25.792 115.734 24C115.734 22.208 116.334 20.704 117.534 19.488C118.75 18.272 120.262 17.664 122.07 17.664C123.238 17.664 124.302 17.944 125.262 18.504C126.222 19.064 126.95 19.816 127.446 20.76L124.782 22.32C124.542 21.824 124.174 21.432 123.678 21.144C123.198 20.856 122.654 20.712 122.046 20.712C121.118 20.712 120.35 21.024 119.742 21.648C119.134 22.256 118.83 23.04 118.83 24C118.83 24.928 119.134 25.712 119.742 26.352C120.35 26.96 121.118 27.264 122.046 27.264C122.67 27.264 123.222 27.128 123.702 26.856C124.198 26.568 124.566 26.176 124.806 25.68L127.494 27.216C126.966 28.176 126.214 28.936 125.238 29.496C124.278 30.056 123.222 30.336 122.07 30.336ZM136.955 18V20.976H134.243V25.968C134.243 26.384 134.347 26.688 134.555 26.88C134.763 27.072 135.067 27.184 135.467 27.216C135.867 27.232 136.363 27.224 136.955 27.192V30C134.859 30.24 133.363 30.048 132.467 29.424C131.587 28.784 131.147 27.632 131.147 25.968V20.976H129.059V18H131.147V15.576L134.243 14.64V18H136.955Z" fill="#1A1922"/>
<defs>
<filter id="filter0_d_0_34" x="21.6804" y="0.644592" width="41.7717" height="51.5361" filterUnits="userSpaceOnUse" color-interpolation-filters="sRGB">
<feFlood flood-opacity="0" result="BackgroundImageFix"/>
<feColorMatrix in="SourceAlpha" type="matrix" values="0 0 0 0 0 0 0 0 0 0 0 0 0 0 0 0 0 0 127 0" result="hardAlpha"/>
<feOffset dy="5.68675"/>
<feGaussianBlur stdDeviation="2.84337"/>
<feComposite in2="hardAlpha" operator="out"/>
<feColorMatrix type="matrix" values="0 0 0 0 0 0 0 0 0 0 0 0 0 0 0 0 0 0 0.25 0"/>
<feBlend mode="normal" in2="BackgroundImageFix" result="effect1_dropShadow_0_34"/>
<feBlend mode="normal" in="SourceGraphic" in2="effect1_dropShadow_0_34" result="shape"/>
</filter>
<linearGradient id="paint0_linear_0_34" x1="50.4991" y1="-1.5" x2="22.1346" y2="20.3353" gradientUnits="userSpaceOnUse">
<stop stop-color="#6684F9"/>
<stop offset="0.480455" stop-color="#DBA3D1"/>
<stop offset="1" stop-color="#FFB989"/>
</linearGradient>
</defs>
</svg>
