<svg width="1440" height="1138" viewBox="0 0 1440 1138" fill="none" xmlns="http://www.w3.org/2000/svg">
<mask id="mask0_0_7" style="mask-type:alpha" maskUnits="userSpaceOnUse" x="0" y="0" width="1440" height="1130">
<path d="M0 30C0 13.4315 13.4315 0 30 0H1410C1426.57 0 1440 13.4315 1440 30V1120C1440 1125.52 1435.52 1130 1430 1130H9.99996C4.47711 1130 0 1125.52 0 1120V30Z" fill="#F8F8F8"/>
</mask>
<g mask="url(#mask0_0_7)">
<rect x="70" y="-3" width="150" height="1145" rx="10" fill="#FFE2E2" fill-opacity="0.2"/>
<rect x="1220" width="150" height="1130" rx="10" fill="#FFE2E2" fill-opacity="0.2"/>
<path d="M70 0.5V1207.5" stroke="#DEE3F0"/>
<path d="M220 0.5V1207.5" stroke="#DEE3F0"/>
<path d="M270 0.5V1207.5" stroke="#DEE3F0"/>
<path d="M420 0.5V1207.5" stroke="#DEE3F0"/>
<path d="M470 0.5V1207.5" stroke="#DEE3F0"/>
<path d="M620 0.5V1207.5" stroke="#DEE3F0"/>
<path d="M670 0.5V1207.5" stroke="#DEE3F0"/>
<path d="M820 0.5V1207.5" stroke="#DEE3F0"/>
<path d="M870 0.5V1207.5" stroke="#DEE3F0"/>
<path d="M1020 0.5V1207.5" stroke="#DEE3F0"/>
<path d="M1070 0.5V1207.5" stroke="#DEE3F0"/>
<path d="M1370 0.5V1130.5" stroke="#DEE3F0"/>
<path d="M1220 0.5V1130.5" stroke="#DEE3F0"/>
<path d="M0 40H1440" stroke="#DEE3F0"/>
<path d="M0 100H1440" stroke="#DEE3F0"/>
<path d="M442.975 816.537C543.73 821.84 552.744 862.1 516.686 896.611C410.212 998.514 476.383 1040.32 508.201 1026.53C558.978 1004.53 439.175 927.212 388.481 984.922C344.524 1034.96 344.875 1099.99 202.753 1065.24C90.3355 1037.76 2 1107.5 2 1107.5" stroke="black" stroke-width="2" stroke-dasharray="4 4"/>
<path d="M426.368 816.898L439.141 806.461L439.141 827.334L426.368 816.898Z" fill="black"/>
</g>
</svg>
