<svg width="317" height="614" viewBox="0 0 317 614" fill="none" xmlns="http://www.w3.org/2000/svg">
<g filter="url(#filter0_d_0_111)">
<g filter="url(#filter1_b_0_111)">
<rect x="20" y="508" width="276" height="71" rx="35.5" fill="#3E2BB7"/>
</g>
<g filter="url(#filter2_b_0_111)">
<rect x="21" y="508" width="276" height="60" rx="30" fill="url(#paint0_linear_0_111)" fill-opacity="0.7"/>
<rect x="21.5" y="508.5" width="275" height="59" rx="29.5" stroke="url(#paint1_linear_0_111)"/>
</g>
<path d="M69.02 536.76H76.02V537.72C76.02 539.64 75.3867 541.213 74.12 542.44C72.8667 543.653 71.2133 544.26 69.16 544.26C67 544.26 65.2133 543.56 63.8 542.16C62.4 540.76 61.7 539.04 61.7 537C61.7 534.973 62.4 533.26 63.8 531.86C65.2133 530.447 66.96 529.74 69.04 529.74C70.3333 529.74 71.52 530.04 72.6 530.64C73.6933 531.227 74.54 532.033 75.14 533.06L73.16 534.2C72.7867 533.52 72.2333 532.98 71.5 532.58C70.7667 532.18 69.9467 531.98 69.04 531.98C67.5733 531.98 66.3667 532.46 65.42 533.42C64.4733 534.393 64 535.593 64 537.02C64 538.46 64.4733 539.653 65.42 540.6C66.3933 541.547 67.6467 542.02 69.18 542.02C70.4067 542.02 71.4133 541.733 72.2 541.16C72.9867 540.587 73.4867 539.807 73.7 538.82H69.02V536.76ZM87.6427 539.92H79.6827C79.8427 540.667 80.2027 541.247 80.7627 541.66C81.336 542.073 82.0427 542.28 82.8827 542.28C84.016 542.28 84.876 541.867 85.4627 541.04L87.2427 542.08C86.2693 543.533 84.8093 544.26 82.8627 544.26C81.2493 544.26 79.936 543.767 78.9227 542.78C77.9227 541.78 77.4227 540.52 77.4227 539C77.4227 537.52 77.916 536.273 78.9027 535.26C79.876 534.247 81.1427 533.74 82.7027 533.74C84.156 533.74 85.356 534.253 86.3027 535.28C87.2493 536.307 87.7227 537.553 87.7227 539.02C87.7227 539.287 87.696 539.587 87.6427 539.92ZM79.6627 538.16H85.5427C85.396 537.373 85.0627 536.767 84.5427 536.34C84.036 535.913 83.416 535.7 82.6827 535.7C81.8827 535.7 81.216 535.92 80.6827 536.36C80.1493 536.8 79.8093 537.4 79.6627 538.16ZM94.8908 534V536.08H92.4108V540.88C92.4108 541.293 92.5041 541.593 92.6908 541.78C92.8774 541.953 93.1508 542.053 93.5108 542.08C93.8841 542.093 94.3441 542.087 94.8908 542.06V544C93.2374 544.2 92.0508 544.06 91.3308 543.58C90.6108 543.087 90.2508 542.187 90.2508 540.88V536.08H88.4108V534H90.2508V531.84L92.4108 531.2V534H94.8908ZM106.748 544.26C105.401 544.26 104.254 543.96 103.308 543.36C102.374 542.747 101.721 541.9 101.347 540.82L103.327 539.66C103.888 541.233 105.048 542.02 106.808 542.02C107.661 542.02 108.308 541.853 108.748 541.52C109.188 541.187 109.408 540.74 109.408 540.18C109.408 539.62 109.174 539.187 108.708 538.88C108.241 538.573 107.414 538.24 106.228 537.88C105.014 537.52 104.034 537.093 103.288 536.6C102.381 535.96 101.928 535.02 101.928 533.78C101.928 532.54 102.368 531.56 103.248 530.84C104.114 530.107 105.174 529.74 106.428 529.74C107.534 529.74 108.508 530.013 109.348 530.56C110.201 531.093 110.854 531.847 111.308 532.82L109.368 533.94C108.781 532.633 107.801 531.98 106.428 531.98C105.761 531.98 105.228 532.14 104.828 532.46C104.428 532.767 104.228 533.187 104.228 533.72C104.228 534.24 104.428 534.653 104.828 534.96C105.228 535.253 105.968 535.567 107.048 535.9C107.714 536.127 108.101 536.26 108.208 536.3C108.381 536.353 108.728 536.487 109.248 536.7C109.674 536.873 110.014 537.06 110.268 537.26C111.308 538.073 111.788 539.033 111.707 540.14C111.707 541.407 111.248 542.413 110.328 543.16C109.434 543.893 108.241 544.26 106.748 544.26ZM118.836 534V536.08H116.356V540.88C116.356 541.293 116.449 541.593 116.636 541.78C116.823 541.953 117.096 542.053 117.456 542.08C117.829 542.093 118.289 542.087 118.836 542.06V544C117.183 544.2 115.996 544.06 115.276 543.58C114.556 543.087 114.196 542.187 114.196 540.88V536.08H112.356V534H114.196V531.84L116.356 531.2V534H118.836ZM128.305 535.42V534H130.465V544H128.305V542.56C127.492 543.693 126.325 544.26 124.805 544.26C123.432 544.26 122.258 543.753 121.285 542.74C120.312 541.727 119.825 540.48 119.825 539C119.825 537.52 120.312 536.273 121.285 535.26C122.258 534.247 123.432 533.74 124.805 533.74C126.325 533.74 127.492 534.3 128.305 535.42ZM122.885 541.3C123.485 541.9 124.238 542.2 125.145 542.2C126.052 542.2 126.805 541.9 127.405 541.3C128.005 540.687 128.305 539.92 128.305 539C128.305 538.08 128.005 537.32 127.405 536.72C126.805 536.107 126.052 535.8 125.145 535.8C124.238 535.8 123.485 536.107 122.885 536.72C122.285 537.32 121.985 538.08 121.985 539C121.985 539.907 122.285 540.673 122.885 541.3ZM135.143 534V535.68C135.689 534.44 136.716 533.82 138.223 533.82V536.16C137.409 536.107 136.689 536.307 136.063 536.76C135.449 537.2 135.143 537.933 135.143 538.96V544H132.983V534H135.143ZM145.653 534V536.08H143.173V540.88C143.173 541.293 143.266 541.593 143.453 541.78C143.639 541.953 143.913 542.053 144.273 542.08C144.646 542.093 145.106 542.087 145.653 542.06V544C143.999 544.2 142.813 544.06 142.093 543.58C141.373 543.087 141.013 542.187 141.013 540.88V536.08H139.173V534H141.013V531.84L143.173 531.2V534H145.653ZM156.861 539.92H148.901C149.061 540.667 149.421 541.247 149.981 541.66C150.555 542.073 151.261 542.28 152.101 542.28C153.235 542.28 154.095 541.867 154.681 541.04L156.461 542.08C155.488 543.533 154.028 544.26 152.081 544.26C150.468 544.26 149.155 543.767 148.141 542.78C147.141 541.78 146.641 540.52 146.641 539C146.641 537.52 147.135 536.273 148.121 535.26C149.095 534.247 150.361 533.74 151.921 533.74C153.375 533.74 154.575 534.253 155.521 535.28C156.468 536.307 156.941 537.553 156.941 539.02C156.941 539.287 156.915 539.587 156.861 539.92ZM148.881 538.16H154.761C154.615 537.373 154.281 536.767 153.761 536.34C153.255 535.913 152.635 535.7 151.901 535.7C151.101 535.7 150.435 535.92 149.901 536.36C149.368 536.8 149.028 537.4 148.881 538.16ZM166.703 535.42V530H168.863V544H166.703V542.56C165.89 543.693 164.723 544.26 163.203 544.26C161.83 544.26 160.657 543.753 159.683 542.74C158.71 541.727 158.223 540.48 158.223 539C158.223 537.52 158.71 536.273 159.683 535.26C160.657 534.247 161.83 533.74 163.203 533.74C164.723 533.74 165.89 534.3 166.703 535.42ZM161.283 541.3C161.883 541.9 162.637 542.2 163.543 542.2C164.45 542.2 165.203 541.9 165.803 541.3C166.403 540.687 166.703 539.92 166.703 539C166.703 538.08 166.403 537.32 165.803 536.72C165.203 536.107 164.45 535.8 163.543 535.8C162.637 535.8 161.883 536.107 161.283 536.72C160.683 537.32 160.383 538.08 160.383 539C160.383 539.907 160.683 540.673 161.283 541.3Z" fill="white"/>
<path d="M249 531L257 538L249 545" stroke="white" stroke-width="2" stroke-linecap="round" stroke-linejoin="round"/>
<path d="M256 538H230" stroke="white" stroke-width="2" stroke-linecap="round" stroke-linejoin="round"/>
</g>
<defs>
<filter id="filter0_d_0_111" x="0" y="0" width="317" height="614" filterUnits="userSpaceOnUse" color-interpolation-filters="sRGB">
<feFlood flood-opacity="0" result="BackgroundImageFix"/>
<feColorMatrix in="SourceAlpha" type="matrix" values="0 0 0 0 0 0 0 0 0 0 0 0 0 0 0 0 0 0 127 0" result="hardAlpha"/>
<feOffset dy="15"/>
<feGaussianBlur stdDeviation="10"/>
<feComposite in2="hardAlpha" operator="out"/>
<feColorMatrix type="matrix" values="0 0 0 0 0.195611 0 0 0 0 0.0680555 0 0 0 0 0.466667 0 0 0 0.2 0"/>
<feBlend mode="normal" in2="BackgroundImageFix" result="effect1_dropShadow_0_111"/>
<feBlend mode="normal" in="SourceGraphic" in2="effect1_dropShadow_0_111" result="shape"/>
</filter>
<filter id="filter1_b_0_111" x="0" y="488" width="316" height="111" filterUnits="userSpaceOnUse" color-interpolation-filters="sRGB">
<feFlood flood-opacity="0" result="BackgroundImageFix"/>
<feGaussianBlur in="BackgroundImage" stdDeviation="10"/>
<feComposite in2="SourceAlpha" operator="in" result="effect1_backgroundBlur_0_111"/>
<feBlend mode="normal" in="SourceGraphic" in2="effect1_backgroundBlur_0_111" result="shape"/>
</filter>
<filter id="filter2_b_0_111" x="1" y="488" width="316" height="100" filterUnits="userSpaceOnUse" color-interpolation-filters="sRGB">
<feFlood flood-opacity="0" result="BackgroundImageFix"/>
<feGaussianBlur in="BackgroundImage" stdDeviation="10"/>
<feComposite in2="SourceAlpha" operator="in" result="effect1_backgroundBlur_0_111"/>
<feBlend mode="normal" in="SourceGraphic" in2="effect1_backgroundBlur_0_111" result="shape"/>
</filter>
<linearGradient id="paint0_linear_0_111" x1="60.4834" y1="440.5" x2="302.067" y2="551.677" gradientUnits="userSpaceOnUse">
<stop stop-color="#FFBCCC"/>
<stop offset="1" stop-color="#606BFF" stop-opacity="0.33"/>
</linearGradient>
<linearGradient id="paint1_linear_0_111" x1="112.096" y1="533.5" x2="111.611" y2="566.954" gradientUnits="userSpaceOnUse">
<stop stop-color="white"/>
<stop offset="1" stop-color="#F2AEB2"/>
</linearGradient>
</defs>
</svg>
