<svg width="135" height="98" viewBox="0 0 135 98" fill="none" xmlns="http://www.w3.org/2000/svg">
<path d="M0 67.5C0 30.2208 30.2208 0 67.5 0C104.779 0 135 30.2208 135 67.5V100H0V67.5Z" fill="#1A1922"/>
<g filter="url(#filter0_b_0_128)">
<rect x="59" y="26" width="18" height="34" rx="9" fill="white" fill-opacity="0.2"/>
<rect x="60" y="27" width="16" height="32" rx="8" stroke="url(#paint0_linear_0_128)" stroke-width="2"/>
</g>
<path d="M68 42V32" stroke="white" stroke-width="2" stroke-linecap="round" stroke-linejoin="round"/>
<path d="M51.848 83.208C50.7707 83.208 49.8533 82.968 49.096 82.488C48.3493 81.9973 47.8267 81.32 47.528 80.456L49.112 79.528C49.56 80.7867 50.488 81.416 51.896 81.416C52.5787 81.416 53.096 81.2827 53.448 81.016C53.8 80.7493 53.976 80.392 53.976 79.944C53.976 79.496 53.7893 79.1493 53.416 78.904C53.0427 78.6587 52.3813 78.392 51.432 78.104C50.4613 77.816 49.6773 77.4747 49.08 77.08C48.3547 76.568 47.992 75.816 47.992 74.824C47.992 73.832 48.344 73.048 49.048 72.472C49.7413 71.8853 50.5893 71.592 51.592 71.592C52.4773 71.592 53.256 71.8107 53.928 72.248C54.6107 72.6747 55.1333 73.2773 55.496 74.056L53.944 74.952C53.4747 73.9067 52.6907 73.384 51.592 73.384C51.0587 73.384 50.632 73.512 50.312 73.768C49.992 74.0133 49.832 74.3493 49.832 74.776C49.832 75.192 49.992 75.5227 50.312 75.768C50.632 76.0027 51.224 76.2533 52.088 76.52C52.6213 76.7013 52.9307 76.808 53.016 76.84C53.1547 76.8827 53.432 76.9893 53.848 77.16C54.1893 77.2987 54.4613 77.448 54.664 77.608C55.496 78.2587 55.88 79.0267 55.816 79.912C55.816 80.9253 55.448 81.7307 54.712 82.328C53.9973 82.9147 53.0427 83.208 51.848 83.208ZM61.284 83.208C60.0787 83.208 59.0707 82.8027 58.26 81.992C57.46 81.1707 57.06 80.1733 57.06 79C57.06 77.8053 57.46 76.808 58.26 76.008C59.0707 75.1973 60.0787 74.792 61.284 74.792C62.0627 74.792 62.772 74.9787 63.412 75.352C64.052 75.7253 64.532 76.2267 64.852 76.856L63.364 77.72C63.1827 77.336 62.9053 77.0373 62.532 76.824C62.1693 76.6 61.748 76.488 61.268 76.488C60.564 76.488 59.972 76.728 59.492 77.208C59.0227 77.6987 58.788 78.296 58.788 79C58.788 79.704 59.0227 80.3013 59.492 80.792C59.972 81.272 60.564 81.512 61.268 81.512C61.7373 81.512 62.1587 81.4053 62.532 81.192C62.916 80.968 63.204 80.664 63.396 80.28L64.884 81.128C64.5427 81.768 64.0467 82.2747 63.396 82.648C62.756 83.0213 62.052 83.208 61.284 83.208ZM67.9079 75V76.344C68.3452 75.352 69.1665 74.856 70.3719 74.856V76.728C69.7212 76.6853 69.1452 76.8453 68.6439 77.208C68.1532 77.56 67.9079 78.1467 67.9079 78.968V83H66.1799V75H67.9079ZM78.0416 81.992C77.231 82.8027 76.2336 83.208 75.0496 83.208C73.8656 83.208 72.8683 82.8027 72.0576 81.992C71.2363 81.1707 70.8256 80.1733 70.8256 79C70.8256 77.8267 71.2363 76.8293 72.0576 76.008C72.8683 75.1973 73.8656 74.792 75.0496 74.792C76.2336 74.792 77.231 75.1973 78.0416 76.008C78.863 76.8293 79.2736 77.8267 79.2736 79C79.2736 80.1733 78.863 81.1707 78.0416 81.992ZM72.5536 79C72.5536 79.7253 72.7936 80.328 73.2736 80.808C73.7536 81.288 74.3456 81.528 75.0496 81.528C75.7536 81.528 76.3456 81.288 76.8256 80.808C77.3056 80.328 77.5456 79.7253 77.5456 79C77.5456 78.2747 77.3056 77.672 76.8256 77.192C76.3456 76.712 75.7536 76.472 75.0496 76.472C74.3456 76.472 73.7536 76.712 73.2736 77.192C72.7936 77.672 72.5536 78.2747 72.5536 79ZM82.5641 83H80.8361V71.32H82.5641V83ZM86.2985 83H84.5705V71.32H86.2985V83Z" fill="white"/>
<defs>
<filter id="filter0_b_0_128" x="39" y="6" width="58" height="74" filterUnits="userSpaceOnUse" color-interpolation-filters="sRGB">
<feFlood flood-opacity="0" result="BackgroundImageFix"/>
<feGaussianBlur in="BackgroundImage" stdDeviation="10"/>
<feComposite in2="SourceAlpha" operator="in" result="effect1_backgroundBlur_0_128"/>
<feBlend mode="normal" in="SourceGraphic" in2="effect1_backgroundBlur_0_128" result="shape"/>
</filter>
<linearGradient id="paint0_linear_0_128" x1="68" y1="26" x2="87.8032" y2="49.9778" gradientUnits="userSpaceOnUse">
<stop stop-color="#F6B1A6"/>
<stop offset="1" stop-color="#7E8AF3"/>
</linearGradient>
</defs>
</svg>
